<?xml version="1.0" encoding="UTF-8" standalone="no"?>
<!DOCTYPE svg PUBLIC "-//W3C//DTD SVG 1.1//EN"
 "http://www.w3.org/Graphics/SVG/1.1/DTD/svg11.dtd">
<!-- Generated by graphviz version 2.38.0 (20140413.2041)
 -->
<!-- Title: controllers_diagram Pages: 1 -->
<svg width="680pt" height="597pt"
 viewBox="0.00 0.00 679.51 597.00" xmlns="http://www.w3.org/2000/svg" xmlns:xlink="http://www.w3.org/1999/xlink">
<g id="graph0" class="graph" transform="scale(1 1) rotate(0) translate(243.821 337.5)">
<title>controllers_diagram</title>
<polygon fill="none" stroke="none" points="-243.821,259.5 -243.821,-337.5 435.688,-337.5 435.688,259.5 -243.821,259.5"/>
<!-- _diagram_info -->
<g id="node1" class="node"><title>_diagram_info</title>
<text text-anchor="start" x="232.312" y="-75.1" font-family="Times,serif" font-size="13.00">Controllers diagram</text>
<text text-anchor="start" x="232.312" y="-62.1" font-family="Times,serif" font-size="13.00">Date: Aug 02 2016 &#45; 16:34</text>
<text text-anchor="start" x="232.312" y="-49.1" font-family="Times,serif" font-size="13.00">Migration version: 20160802203257</text>
<text text-anchor="start" x="232.312" y="-36.1" font-family="Times,serif" font-size="13.00">Generated by RailRoady 1.5.1</text>
<text text-anchor="start" x="232.312" y="-23.1" font-family="Times,serif" font-size="13.00">http://railroady.prestonlee.com</text>
</g>
<!-- ApplicationController -->
<g id="node2" class="node"><title>ApplicationController</title>
<path fill="none" stroke="black" d="M-227.821,-241C-227.821,-241 -112.179,-241 -112.179,-241 -106.179,-241 -100.179,-247 -100.179,-253 -100.179,-253 -100.179,-321 -100.179,-321 -100.179,-327 -106.179,-333 -112.179,-333 -112.179,-333 -227.821,-333 -227.821,-333 -233.821,-333 -239.821,-327 -239.821,-321 -239.821,-321 -239.821,-253 -239.821,-253 -239.821,-247 -233.821,-241 -227.821,-241"/>
<text text-anchor="middle" x="-170" y="-317.8" font-family="Times,serif" font-size="14.00">ApplicationController</text>
<polyline fill="none" stroke="black" points="-239.821,-311 -100.179,-311 "/>
<polyline fill="none" stroke="black" points="-239.821,-287 -100.179,-287 "/>
<polyline fill="none" stroke="black" points="-239.821,-263 -100.179,-263 "/>
<text text-anchor="start" x="-231.821" y="-247.8" font-family="Times,serif" font-size="14.00">_layout</text>
</g>
<!-- GenresController -->
<g id="node3" class="node"><title>GenresController</title>
<path fill="none" stroke="black" d="M92.4033,-81C92.4033,-81 181.597,-81 181.597,-81 187.597,-81 193.597,-87 193.597,-93 193.597,-93 193.597,-271 193.597,-271 193.597,-277 187.597,-283 181.597,-283 181.597,-283 92.4033,-283 92.4033,-283 86.4033,-283 80.4033,-277 80.4033,-271 80.4033,-271 80.4033,-93 80.4033,-93 80.4033,-87 86.4033,-81 92.4033,-81"/>
<text text-anchor="middle" x="137" y="-267.8" font-family="Times,serif" font-size="14.00">GenresController</text>
<polyline fill="none" stroke="black" points="80.4033,-261 193.597,-261 "/>
<text text-anchor="start" x="88.4033" y="-245.8" font-family="Times,serif" font-size="14.00">index</text>
<text text-anchor="start" x="88.4033" y="-231.8" font-family="Times,serif" font-size="14.00">destroy</text>
<text text-anchor="start" x="88.4033" y="-217.8" font-family="Times,serif" font-size="14.00">edit</text>
<text text-anchor="start" x="88.4033" y="-203.8" font-family="Times,serif" font-size="14.00">create</text>
<text text-anchor="start" x="88.4033" y="-189.8" font-family="Times,serif" font-size="14.00">new</text>
<text text-anchor="start" x="88.4033" y="-175.8" font-family="Times,serif" font-size="14.00">show</text>
<text text-anchor="start" x="88.4033" y="-161.8" font-family="Times,serif" font-size="14.00">update</text>
<polyline fill="none" stroke="black" points="80.4033,-155 193.597,-155 "/>
<polyline fill="none" stroke="black" points="80.4033,-131 193.597,-131 "/>
<text text-anchor="start" x="88.4033" y="-115.8" font-family="Times,serif" font-size="14.00">_layout</text>
<text text-anchor="start" x="88.4033" y="-101.8" font-family="Times,serif" font-size="14.00">genre_params</text>
<text text-anchor="start" x="88.4033" y="-87.8" font-family="Times,serif" font-size="14.00">set_genre</text>
</g>
<!-- SongsController -->
<g id="node4" class="node"><title>SongsController</title>
<path fill="none" stroke="black" d="M-51.8896,-81C-51.8896,-81 31.8896,-81 31.8896,-81 37.8896,-81 43.8896,-87 43.8896,-93 43.8896,-93 43.8896,-271 43.8896,-271 43.8896,-277 37.8896,-283 31.8896,-283 31.8896,-283 -51.8896,-283 -51.8896,-283 -57.8896,-283 -63.8896,-277 -63.8896,-271 -63.8896,-271 -63.8896,-93 -63.8896,-93 -63.8896,-87 -57.8896,-81 -51.8896,-81"/>
<text text-anchor="middle" x="-10" y="-267.8" font-family="Times,serif" font-size="14.00">SongsController</text>
<polyline fill="none" stroke="black" points="-63.8896,-261 43.8896,-261 "/>
<text text-anchor="start" x="-55.8896" y="-245.8" font-family="Times,serif" font-size="14.00">index</text>
<text text-anchor="start" x="-55.8896" y="-231.8" font-family="Times,serif" font-size="14.00">destroy</text>
<text text-anchor="start" x="-55.8896" y="-217.8" font-family="Times,serif" font-size="14.00">edit</text>
<text text-anchor="start" x="-55.8896" y="-203.8" font-family="Times,serif" font-size="14.00">create</text>
<text text-anchor="start" x="-55.8896" y="-189.8" font-family="Times,serif" font-size="14.00">new</text>
<text text-anchor="start" x="-55.8896" y="-175.8" font-family="Times,serif" font-size="14.00">show</text>
<text text-anchor="start" x="-55.8896" y="-161.8" font-family="Times,serif" font-size="14.00">update</text>
<polyline fill="none" stroke="black" points="-63.8896,-155 43.8896,-155 "/>
<polyline fill="none" stroke="black" points="-63.8896,-131 43.8896,-131 "/>
<text text-anchor="start" x="-55.8896" y="-115.8" font-family="Times,serif" font-size="14.00">_layout</text>
<text text-anchor="start" x="-55.8896" y="-101.8" font-family="Times,serif" font-size="14.00">set_song</text>
<text text-anchor="start" x="-55.8896" y="-87.8" font-family="Times,serif" font-size="14.00">song_params</text>
</g>
<!-- Users::ConfirmationsController -->
<g id="node5" class="node"><title>Users::ConfirmationsController</title>
<path fill="none" stroke="black" d="M-163.662,175C-163.662,175 5.66211,175 5.66211,175 11.6621,175 17.6621,169 17.6621,163 17.6621,163 17.6621,95 17.6621,95 17.6621,89 11.6621,83 5.66211,83 5.66211,83 -163.662,83 -163.662,83 -169.662,83 -175.662,89 -175.662,95 -175.662,95 -175.662,163 -175.662,163 -175.662,169 -169.662,175 -163.662,175"/>
<text text-anchor="middle" x="-79" y="98.2" font-family="Times,serif" font-size="14.00">Users::ConfirmationsController</text>
<polyline fill="none" stroke="black" points="-175.662,105 17.6621,105 "/>
<polyline fill="none" stroke="black" points="-175.662,129 17.6621,129 "/>
<polyline fill="none" stroke="black" points="-175.662,153 17.6621,153 "/>
<text text-anchor="start" x="-167.662" y="168.2" font-family="Times,serif" font-size="14.00">_layout</text>
</g>
<!-- Users::OmniauthCallbacksController -->
<g id="node6" class="node"><title>Users::OmniauthCallbacksController</title>
<path fill="none" stroke="black" d="M-116.204,47C-116.204,47 84.2036,47 84.2036,47 90.2036,47 96.2036,41 96.2036,35 96.2036,35 96.2036,-33 96.2036,-33 96.2036,-39 90.2036,-45 84.2036,-45 84.2036,-45 -116.204,-45 -116.204,-45 -122.204,-45 -128.204,-39 -128.204,-33 -128.204,-33 -128.204,35 -128.204,35 -128.204,41 -122.204,47 -116.204,47"/>
<text text-anchor="middle" x="-16" y="-29.8" font-family="Times,serif" font-size="14.00">Users::OmniauthCallbacksController</text>
<polyline fill="none" stroke="black" points="-128.204,-23 96.2036,-23 "/>
<polyline fill="none" stroke="black" points="-128.204,1 96.2036,1 "/>
<polyline fill="none" stroke="black" points="-128.204,25 96.2036,25 "/>
<text text-anchor="start" x="-120.204" y="40.2" font-family="Times,serif" font-size="14.00">_layout</text>
</g>
<!-- Users::PasswordsController -->
<g id="node7" class="node"><title>Users::PasswordsController</title>
<path fill="none" stroke="black" d="M235.838,-129C235.838,-129 384.162,-129 384.162,-129 390.162,-129 396.162,-135 396.162,-141 396.162,-141 396.162,-209 396.162,-209 396.162,-215 390.162,-221 384.162,-221 384.162,-221 235.838,-221 235.838,-221 229.838,-221 223.838,-215 223.838,-209 223.838,-209 223.838,-141 223.838,-141 223.838,-135 229.838,-129 235.838,-129"/>
<text text-anchor="middle" x="310" y="-205.8" font-family="Times,serif" font-size="14.00">Users::PasswordsController</text>
<polyline fill="none" stroke="black" points="223.838,-199 396.162,-199 "/>
<polyline fill="none" stroke="black" points="223.838,-175 396.162,-175 "/>
<polyline fill="none" stroke="black" points="223.838,-151 396.162,-151 "/>
<text text-anchor="start" x="231.838" y="-135.8" font-family="Times,serif" font-size="14.00">_layout</text>
</g>
<!-- Users::RegistrationsController -->
<g id="node8" class="node"><title>Users::RegistrationsController</title>
<path fill="none" stroke="black" d="M140.455,127C140.455,127 303.545,127 303.545,127 309.545,127 315.545,121 315.545,115 315.545,115 315.545,35 315.545,35 315.545,29 309.545,23 303.545,23 303.545,23 140.455,23 140.455,23 134.455,23 128.455,29 128.455,35 128.455,35 128.455,115 128.455,115 128.455,121 134.455,127 140.455,127"/>
<text text-anchor="middle" x="222" y="38.2" font-family="Times,serif" font-size="14.00">Users::RegistrationsController</text>
<polyline fill="none" stroke="black" points="128.455,45 315.545,45 "/>
<text text-anchor="start" x="136.455" y="60.2" font-family="Times,serif" font-size="14.00">after_sign_up_path_for</text>
<text text-anchor="start" x="136.455" y="74.2" font-family="Times,serif" font-size="14.00">configure_sign_up_params</text>
<polyline fill="none" stroke="black" points="128.455,81 315.545,81 "/>
<polyline fill="none" stroke="black" points="128.455,105 315.545,105 "/>
<text text-anchor="start" x="136.455" y="120.2" font-family="Times,serif" font-size="14.00">_layout</text>
</g>
<!-- Users::SessionsController -->
<g id="node9" class="node"><title>Users::SessionsController</title>
<path fill="none" stroke="black" d="M60.2793,255C60.2793,255 197.721,255 197.721,255 203.721,255 209.721,249 209.721,243 209.721,243 209.721,177 209.721,177 209.721,171 203.721,165 197.721,165 197.721,165 60.2793,165 60.2793,165 54.2793,165 48.2793,171 48.2793,177 48.2793,177 48.2793,243 48.2793,243 48.2793,249 54.2793,255 60.2793,255"/>
<text text-anchor="middle" x="129" y="180.2" font-family="Times,serif" font-size="14.00">Users::SessionsController</text>
<polyline fill="none" stroke="black" points="48.2793,187 209.721,187 "/>
<text text-anchor="start" x="56.2793" y="202.2" font-family="Times,serif" font-size="14.00">after_sign_in_path_for</text>
<polyline fill="none" stroke="black" points="48.2793,209 209.721,209 "/>
<polyline fill="none" stroke="black" points="48.2793,233 209.721,233 "/>
<text text-anchor="start" x="56.2793" y="248.2" font-family="Times,serif" font-size="14.00">_layout</text>
</g>
<!-- Users::UnlocksController -->
<g id="node10" class="node"><title>Users::UnlocksController</title>
<path fill="none" stroke="black" d="M252.065,255C252.065,255 387.935,255 387.935,255 393.935,255 399.935,249 399.935,243 399.935,243 399.935,175 399.935,175 399.935,169 393.935,163 387.935,163 387.935,163 252.065,163 252.065,163 246.065,163 240.065,169 240.065,175 240.065,175 240.065,243 240.065,243 240.065,249 246.065,255 252.065,255"/>
<text text-anchor="middle" x="320" y="178.2" font-family="Times,serif" font-size="14.00">Users::UnlocksController</text>
<polyline fill="none" stroke="black" points="240.065,185 399.935,185 "/>
<polyline fill="none" stroke="black" points="240.065,209 399.935,209 "/>
<polyline fill="none" stroke="black" points="240.065,233 399.935,233 "/>
<text text-anchor="start" x="248.065" y="248.2" font-family="Times,serif" font-size="14.00">_layout</text>
</g>
<!-- UsersController -->
<g id="node11" class="node"><title>UsersController</title>
<path fill="none" stroke="black" d="M-195.714,-113C-195.714,-113 -114.286,-113 -114.286,-113 -108.286,-113 -102.286,-119 -102.286,-125 -102.286,-125 -102.286,-193 -102.286,-193 -102.286,-199 -108.286,-205 -114.286,-205 -114.286,-205 -195.714,-205 -195.714,-205 -201.714,-205 -207.714,-199 -207.714,-193 -207.714,-193 -207.714,-125 -207.714,-125 -207.714,-119 -201.714,-113 -195.714,-113"/>
<text text-anchor="middle" x="-155" y="-189.8" font-family="Times,serif" font-size="14.00">UsersController</text>
<polyline fill="none" stroke="black" points="-207.714,-183 -102.286,-183 "/>
<polyline fill="none" stroke="black" points="-207.714,-159 -102.286,-159 "/>
<polyline fill="none" stroke="black" points="-207.714,-135 -102.286,-135 "/>
<text text-anchor="start" x="-199.714" y="-119.8" font-family="Times,serif" font-size="14.00">_layout</text>
</g>
</g>
</svg>
