<?xml version="1.0" encoding="UTF-8" standalone="no"?>
<!DOCTYPE svg PUBLIC "-//W3C//DTD SVG 1.1//EN"
 "http://www.w3.org/Graphics/SVG/1.1/DTD/svg11.dtd">
<!-- Generated by graphviz version 2.38.0 (20140413.2041)
 -->
<!-- Title: models_diagram Pages: 1 -->
<svg width="366pt" height="660pt"
 viewBox="0.00 0.00 366.19 660.00" xmlns="http://www.w3.org/2000/svg" xmlns:xlink="http://www.w3.org/1999/xlink">
<g id="graph0" class="graph" transform="scale(1 1) rotate(0) translate(4 656)">
<title>models_diagram</title>
<polygon fill="none" stroke="none" points="-4,4 -4,-656 362.193,-656 362.193,4 -4,4"/>
<!-- _diagram_info -->
<g id="node1" class="node"><title>_diagram_info</title>
<text text-anchor="start" x="8" y="-630.6" font-family="Times,serif" font-size="13.00">Models diagram</text>
<text text-anchor="start" x="8" y="-617.6" font-family="Times,serif" font-size="13.00">Date: Aug 02 2016 &#45; 16:34</text>
<text text-anchor="start" x="8" y="-604.6" font-family="Times,serif" font-size="13.00">Migration version: 20160802203257</text>
<text text-anchor="start" x="8" y="-591.6" font-family="Times,serif" font-size="13.00">Generated by RailRoady 1.5.1</text>
<text text-anchor="start" x="8" y="-578.6" font-family="Times,serif" font-size="13.00">http://railroady.prestonlee.com</text>
</g>
<!-- Genre -->
<g id="node2" class="node"><title>Genre</title>
<path fill="none" stroke="black" d="M237.182,-565.5C237.182,-565.5 346.193,-565.5 346.193,-565.5 352.193,-565.5 358.193,-571.5 358.193,-577.5 358.193,-577.5 358.193,-639.5 358.193,-639.5 358.193,-645.5 352.193,-651.5 346.193,-651.5 346.193,-651.5 237.182,-651.5 237.182,-651.5 231.182,-651.5 225.182,-645.5 225.182,-639.5 225.182,-639.5 225.182,-577.5 225.182,-577.5 225.182,-571.5 231.182,-565.5 237.182,-565.5"/>
<text text-anchor="middle" x="291.688" y="-636.3" font-family="Times,serif" font-size="14.00">Genre</text>
<polyline fill="none" stroke="black" points="225.182,-629.5 358.193,-629.5 "/>
<text text-anchor="start" x="233.182" y="-614.3" font-family="Times,serif" font-size="14.00">id :INTEGER</text>
<text text-anchor="start" x="233.182" y="-600.3" font-family="Times,serif" font-size="14.00">name :varchar</text>
<text text-anchor="start" x="233.182" y="-586.3" font-family="Times,serif" font-size="14.00">created_at :datetime</text>
<text text-anchor="start" x="233.182" y="-572.3" font-family="Times,serif" font-size="14.00">updated_at :datetime</text>
</g>
<!-- Song -->
<g id="node3" class="node"><title>Song</title>
<path fill="none" stroke="black" d="M237.182,-414.5C237.182,-414.5 346.193,-414.5 346.193,-414.5 352.193,-414.5 358.193,-420.5 358.193,-426.5 358.193,-426.5 358.193,-516.5 358.193,-516.5 358.193,-522.5 352.193,-528.5 346.193,-528.5 346.193,-528.5 237.182,-528.5 237.182,-528.5 231.182,-528.5 225.182,-522.5 225.182,-516.5 225.182,-516.5 225.182,-426.5 225.182,-426.5 225.182,-420.5 231.182,-414.5 237.182,-414.5"/>
<text text-anchor="middle" x="291.688" y="-513.3" font-family="Times,serif" font-size="14.00">Song</text>
<polyline fill="none" stroke="black" points="225.182,-506.5 358.193,-506.5 "/>
<text text-anchor="start" x="233.182" y="-491.3" font-family="Times,serif" font-size="14.00">id :INTEGER</text>
<text text-anchor="start" x="233.182" y="-477.3" font-family="Times,serif" font-size="14.00">name :varchar</text>
<text text-anchor="start" x="233.182" y="-463.3" font-family="Times,serif" font-size="14.00">duration :varchar</text>
<text text-anchor="start" x="233.182" y="-449.3" font-family="Times,serif" font-size="14.00">genre_id :integer</text>
<text text-anchor="start" x="233.182" y="-435.3" font-family="Times,serif" font-size="14.00">created_at :datetime</text>
<text text-anchor="start" x="233.182" y="-421.3" font-family="Times,serif" font-size="14.00">updated_at :datetime</text>
</g>
<!-- Genre&#45;&gt;Song -->
<g id="edge1" class="edge"><title>Genre&#45;&gt;Song</title>
<path fill="none" stroke="#35d1be" d="M291.688,-557.113C291.688,-551.149 291.688,-544.994 291.688,-538.852"/>
<ellipse fill="none" stroke="#35d1be" cx="291.688" cy="-561.156" rx="4" ry="4"/>
<polygon fill="#35d1be" stroke="#35d1be" points="291.688,-538.563 296.188,-528.563 291.688,-533.563 291.688,-528.563 291.688,-528.563 291.688,-528.563 291.688,-533.563 287.188,-528.563 291.688,-538.563 291.688,-538.563"/>
</g>
<!-- User -->
<g id="node4" class="node"><title>User</title>
<path fill="none" stroke="black" d="M136.41,-151.5C136.41,-151.5 316.966,-151.5 316.966,-151.5 322.966,-151.5 328.966,-157.5 328.966,-163.5 328.966,-163.5 328.966,-365.5 328.966,-365.5 328.966,-371.5 322.966,-377.5 316.966,-377.5 316.966,-377.5 136.41,-377.5 136.41,-377.5 130.41,-377.5 124.41,-371.5 124.41,-365.5 124.41,-365.5 124.41,-163.5 124.41,-163.5 124.41,-157.5 130.41,-151.5 136.41,-151.5"/>
<text text-anchor="middle" x="226.688" y="-362.3" font-family="Times,serif" font-size="14.00">User</text>
<polyline fill="none" stroke="black" points="124.41,-355.5 328.966,-355.5 "/>
<text text-anchor="start" x="132.41" y="-340.3" font-family="Times,serif" font-size="14.00">name :varchar</text>
<text text-anchor="start" x="132.41" y="-326.3" font-family="Times,serif" font-size="14.00">email :varchar</text>
<text text-anchor="start" x="132.41" y="-312.3" font-family="Times,serif" font-size="14.00">encrypted_password :varchar</text>
<text text-anchor="start" x="132.41" y="-298.3" font-family="Times,serif" font-size="14.00">reset_password_token :varchar</text>
<text text-anchor="start" x="132.41" y="-284.3" font-family="Times,serif" font-size="14.00">reset_password_sent_at :datetime</text>
<text text-anchor="start" x="132.41" y="-270.3" font-family="Times,serif" font-size="14.00">remember_created_at :datetime</text>
<text text-anchor="start" x="132.41" y="-256.3" font-family="Times,serif" font-size="14.00">sign_in_count :integer</text>
<text text-anchor="start" x="132.41" y="-242.3" font-family="Times,serif" font-size="14.00">current_sign_in_at :datetime</text>
<text text-anchor="start" x="132.41" y="-228.3" font-family="Times,serif" font-size="14.00">last_sign_in_at :datetime</text>
<text text-anchor="start" x="132.41" y="-214.3" font-family="Times,serif" font-size="14.00">current_sign_in_ip :varchar</text>
<text text-anchor="start" x="132.41" y="-200.3" font-family="Times,serif" font-size="14.00">last_sign_in_ip :varchar</text>
<text text-anchor="start" x="132.41" y="-186.3" font-family="Times,serif" font-size="14.00">created_at :datetime</text>
<text text-anchor="start" x="132.41" y="-172.3" font-family="Times,serif" font-size="14.00">updated_at :datetime</text>
<text text-anchor="start" x="132.41" y="-158.3" font-family="Times,serif" font-size="14.00">id :INTEGER</text>
</g>
<!-- Song&#45;&gt;User -->
<g id="edge3" class="edge"><title>Song&#45;&gt;User</title>
<path fill="none" stroke="#47f083" d="M270.87,-404.844C269.102,-399.267 267.28,-393.522 265.431,-387.689"/>
<polygon fill="#47f083" stroke="#47f083" points="270.904,-404.951 269.637,-415.843 272.415,-409.717 273.926,-414.483 273.926,-414.483 273.926,-414.483 272.415,-409.717 278.216,-413.123 270.904,-404.951 270.904,-404.951"/>
<polygon fill="#47f083" stroke="#47f083" points="265.318,-387.335 266.585,-376.442 263.807,-382.569 262.296,-377.802 262.296,-377.802 262.296,-377.802 263.807,-382.569 258.006,-379.163 265.318,-387.335 265.318,-387.335"/>
</g>
<!-- UserSong -->
<g id="node5" class="node"><title>UserSong</title>
<path fill="none" stroke="black" d="M237.182,-0.5C237.182,-0.5 346.193,-0.5 346.193,-0.5 352.193,-0.5 358.193,-6.5 358.193,-12.5 358.193,-12.5 358.193,-102.5 358.193,-102.5 358.193,-108.5 352.193,-114.5 346.193,-114.5 346.193,-114.5 237.182,-114.5 237.182,-114.5 231.182,-114.5 225.182,-108.5 225.182,-102.5 225.182,-102.5 225.182,-12.5 225.182,-12.5 225.182,-6.5 231.182,-0.5 237.182,-0.5"/>
<text text-anchor="middle" x="291.688" y="-99.3" font-family="Times,serif" font-size="14.00">UserSong</text>
<polyline fill="none" stroke="black" points="225.182,-92.5 358.193,-92.5 "/>
<text text-anchor="start" x="233.182" y="-77.3" font-family="Times,serif" font-size="14.00">id :INTEGER</text>
<text text-anchor="start" x="233.182" y="-63.3" font-family="Times,serif" font-size="14.00">user_id :integer</text>
<text text-anchor="start" x="233.182" y="-49.3" font-family="Times,serif" font-size="14.00">song_id :integer</text>
<text text-anchor="start" x="233.182" y="-35.3" font-family="Times,serif" font-size="14.00">created_at :datetime</text>
<text text-anchor="start" x="233.182" y="-21.3" font-family="Times,serif" font-size="14.00">updated_at :datetime</text>
<text text-anchor="start" x="233.182" y="-7.3" font-family="Times,serif" font-size="14.00">position :integer</text>
</g>
<!-- Song&#45;&gt;UserSong -->
<g id="edge2" class="edge"><title>Song&#45;&gt;UserSong</title>
<path fill="none" stroke="#a9573a" d="M328.007,-406.854C331.993,-397.432 335.422,-387.644 337.688,-378 360.761,-279.785 360.761,-249.215 337.688,-151 335.579,-142.025 332.463,-132.924 328.828,-124.11"/>
<ellipse fill="none" stroke="#a9573a" cx="326.322" cy="-410.663" rx="4.00002" ry="4.00002"/>
<polygon fill="#a9573a" stroke="#a9573a" points="328.71,-123.841 328.827,-112.876 326.707,-119.26 324.704,-114.679 324.704,-114.679 324.704,-114.679 326.707,-119.26 320.58,-116.481 328.71,-123.841 328.71,-123.841"/>
</g>
<!-- User&#45;&gt;UserSong -->
<g id="edge4" class="edge"><title>User&#45;&gt;UserSong</title>
<path fill="none" stroke="#89cea3" d="M264.677,-143.688C266.766,-137.099 268.824,-130.608 270.815,-124.329"/>
<ellipse fill="none" stroke="#89cea3" cx="263.44" cy="-147.59" rx="4.00001" ry="4.00001"/>
<polygon fill="#89cea3" stroke="#89cea3" points="270.861,-124.185 278.173,-116.013 272.372,-119.419 273.883,-114.653 273.883,-114.653 273.883,-114.653 272.372,-119.419 269.594,-113.293 270.861,-124.185 270.861,-124.185"/>
</g>
</g>
</svg>
